<?xml version="1.0" encoding="utf-8"?>
<!-- Generator: Adobe Illustrator 22.0.1, SVG Export Plug-In . SVG Version: 6.00 Build 0)  -->
<svg version="1.1" id="Layer_1" xmlns="http://www.w3.org/2000/svg" xmlns:xlink="http://www.w3.org/1999/xlink" x="0px" y="0px"
	 viewBox="0 0 16 16" width="16px" height="16px" style="enable-background:new 0 0 15.4 15.9;" xml:space="preserve">
<style type="text/css">
	.st0{fill:#888888;}
</style>
<g>
	<path id="XMLID_1_" class="st0" d="M14.8,1c-0.6-0.6-1.3-0.9-2.1-0.9H2.8C2,0.2,1.3,0.5,0.7,1s-0.9,1.3-0.9,2.1V13
		c0,0.8,0.3,1.5,0.9,2.1C1.3,15.7,2,16,2.8,16h9.9c0.8,0,1.5-0.3,2.1-0.9c0.6-0.6,0.9-1.3,0.9-2.1V3.1C15.6,2.3,15.3,1.6,14.8,1
		L14.8,1z M13.3,8.3h-1.8v6.5H8.8V8.3H7.4V6h1.3V4.7c0-1,0.2-1.7,0.7-2.2c0.5-0.5,1.2-0.7,2.2-0.7h1.8V4h-1.1
		c-0.4,0-0.6,0.1-0.7,0.2c-0.1,0.1-0.2,0.4-0.2,0.7v1.1h2L13.3,8.3z"/>
</g>
</svg>
