<?xml version="1.0" encoding="utf-8"?>
<!-- Generator: Adobe Illustrator 22.0.1, SVG Export Plug-In . SVG Version: 6.00 Build 0)  -->
<svg version="1.1" id="Capa_1" xmlns="http://www.w3.org/2000/svg" xmlns:xlink="http://www.w3.org/1999/xlink" x="0px" y="0px"
	 viewBox="0 0 16 16" width="16px" height="16px" style="enable-background:new 0 0 14.6 15.5;" xml:space="preserve">
<g>
	<g>
		<path d="M13.8,8.5H9V9c0,0.3-0.2,0.5-0.5,0.5H6.3C6,9.5,5.8,9.3,5.8,9V8.5H1v6h12.8L13.8,8.5L13.8,8.5z"/>
		<path d="M0.4,3.5v4h5.4V7c0-0.3,0.2-0.5,0.5-0.5h2.2C8.8,6.5,9,6.7,9,7v0.5h5.4v-4c0-0.3-0.2-0.5-0.5-0.5h-3.6
			c0.1-0.1,0.2-0.3,0.2-0.4c0-1.3-1.4-2.3-3.1-2.3s-3.1,1-3.1,2.3c0,0.2,0.1,0.3,0.2,0.4H0.9C0.6,3,0.4,3.2,0.4,3.5z M5.5,2.6
			c0-0.6,0.9-1.2,1.9-1.2s1.9,0.5,1.9,1.2c0,0.2,0.1,0.3,0.2,0.4H5.2C5.4,2.9,5.5,2.7,5.5,2.6z"/>
	</g>
</g>
</svg>
